<?xml version="1.0" encoding="UTF-8"?>
<svg id="Camada_1" data-name="Camada 1" xmlns="http://www.w3.org/2000/svg" viewBox="0 0 998.42 296.93">
  <defs>
    <style>
      .cls-1 {
        fill: #92a6b3;
      }
    </style>
  </defs>
  <path class="cls-1" d="M417.85,143.79l-37.9-116.64h-58.98l-.41.61s.1,0,.14,0c5.81.04,9.83,5.84,8.04,11.36l-74.94,230.63h9.47l74.1-228.03,33.17,102.07h47.31Z"/>
  <path class="cls-1" d="M483.72,270.96c-65.17,0-89.39-54.32-96.5-76.2-1.63-5.01-2.36-8.32-2.48-8.88,1.57-.03,3.06-.06,4.48-.08h14.55s25.42.04,25.42.04c0,0,15.63,83.42,52.65,83.91h.14c5.92.03,14.19-3.24,14.19-19.98V40.01c0-6.63-5.27-12.18-11.9-12.25h-.18l.41-.61h56.67v160.83c0,33.56,3.2,82.98-57.45,82.98Z"/>
  <path class="cls-1" d="M659.58,267.85c-5.75,2.84-12.54,2.48-17.92-1.03-25.2-16.49-34.37-61.49-34.37-117.75h-.34s.34-.01.34-.01c0-56.26,9.17-96.85,34.37-113.33,5.38-3.52,11.92-3.31,17.91-1.04,34.65,13.16,36.15,65.21,36.15,100.22h48.89c-2.74-54.78-18.91-83.08-53.49-100.59-14.51-7.35-29.7-8.35-34.14-8.35-13.73,0-94.69,1.19-94.69,122.76v.66c0,121.62,77.8,121.55,90.74,121.55,7.65,0,26-1.05,40.51-8.4,28.68-14.53,42.26-35.2,48.46-73.51h-46.87c-1.82,34.9-11.1,66.73-35.56,78.82Z"/>
  <path class="cls-1" d="M403.77,185.81l-13.6,8.99c-.1,0-1.14-.03-2.95-.04-16.92-.11-101.21,1.64-114.52,45.88l-8.62-2.59c7.02-23.33,31.35-39.75,70.37-47.48,16.27-3.23,36.03-4.34,50.29-4.69,1.57-.03,3.06-.06,4.48-.08,8.45-.14,14.14,0,14.55,0Z"/>
</svg>