<?xml version="1.0" encoding="UTF-8"?>
<svg id="Camada_1" data-name="Camada 1" xmlns="http://www.w3.org/2000/svg" viewBox="0 0 998.42 296.93">
  <defs>
    <style>
      .cls-1 {
        fill: #f4f4f4;
      }

      .cls-2 {
        fill: #020e1d;
      }
    </style>
  </defs>
  <g>
    <path class="cls-1" d="M296.47,143.79l-37.9-116.64h-58.98l-.41.61s.1,0,.14,0c5.81.04,9.83,5.84,8.04,11.36l-74.94,230.63h9.47L215.99,41.72l33.17,102.07h47.31Z"/>
    <path class="cls-1" d="M362.33,270.96c-65.17,0-89.39-54.32-96.5-76.2-1.63-5.01-2.36-8.32-2.48-8.88,1.57-.03,3.06-.06,4.48-.08h14.55s25.42.04,25.42.04c0,0,15.63,83.42,52.65,83.91h.14c5.92.03,14.19-3.24,14.19-19.98V40.01c0-6.63-5.27-12.18-11.9-12.25h-.18l.41-.61h56.67v160.83c0,33.56,3.2,82.98-57.45,82.98Z"/>
    <path class="cls-1" d="M538.2,267.85c-5.75,2.84-12.54,2.48-17.92-1.03-25.2-16.49-34.37-61.49-34.37-117.75h-.34s.34-.01.34-.01c0-56.26,9.17-96.85,34.37-113.33,5.38-3.52,11.92-3.31,17.91-1.04,34.65,13.16,36.15,65.21,36.15,100.22h48.89c-2.74-54.78-18.91-83.08-53.49-100.59-14.51-7.35-29.7-8.35-34.14-8.35-13.73,0-94.69,1.19-94.69,122.76v.66c0,121.62,77.8,121.55,90.74,121.55,7.65,0,26-1.05,40.51-8.4,28.68-14.53,42.26-35.2,48.46-73.51h-46.87c-1.82,34.9-11.1,66.73-35.56,78.82Z"/>
    <path class="cls-1" d="M282.38,185.81l-13.6,8.99c-.1,0-1.14-.03-2.95-.04-16.92-.11-101.21,1.64-114.52,45.88l-8.62-2.59c7.02-23.33,31.35-39.75,70.37-47.48,16.27-3.23,36.03-4.34,50.29-4.69,1.57-.03,3.06-.06,4.48-.08,8.45-.14,14.14,0,14.55,0Z"/>
  </g>
  <g>
    <path class="cls-2" d="M684.1,105.26l-2.82-7.07h-10.09l-2.82,7.07h-2.63l9.12-22.95h2.86l9.12,22.95h-2.74ZM677.11,87.52c-.35-.89-.58-1.58-.77-2.36h-.19c-.19.77-.43,1.47-.77,2.36l-3.44,8.54h8.58l-3.4-8.54Z"/>
    <path class="cls-2" d="M708.52,105.26h-2.32l-12.02-16.58c-.66-.89-1.24-1.78-1.58-2.43h-.15v19.01h-2.43v-22.95h2.51l11.82,16.31c.62.89,1.2,1.78,1.58,2.43h.12v-18.74h2.47v22.95Z"/>
    <path class="cls-2" d="M721.73,92.81l9.89,12.44h-3.21l-8.5-10.63-3.52,3.79v6.84h-2.55v-22.95h2.55v13.25h.12c1.2-1.47,2.71-3.25,4.17-4.87l7.57-8.39h3.01l-9.54,10.51Z"/>
    <path class="cls-2" d="M752.72,95.71c0,6.34-3.44,9.78-9.24,9.78s-9.23-3.44-9.23-9.78v-13.41h2.55v13.18c0,4.83,2.2,7.65,6.72,7.65s6.72-2.82,6.72-7.65v-13.18h2.47v13.41Z"/>
    <path class="cls-2" d="M770.07,85.59c-1.31-.73-3.59-1.24-5.56-1.24-3.52,0-5.49,1.51-5.49,3.82,0,5.49,12.56,3.05,12.56,10.86,0,3.94-2.86,6.45-8.46,6.45-2.74,0-5.45-.66-6.95-1.51l.31-2.43c1.55.89,4.13,1.66,6.68,1.66,4.02,0,5.8-1.51,5.8-3.94,0-5.68-12.56-3.09-12.56-10.94,0-3.59,2.9-6.26,8.08-6.26,2.32,0,4.64.42,6.14,1.24l-.54,2.28Z"/>
    <path class="cls-2" d="M794.02,105.26h-2.55v-10.43h-13.41v10.43h-2.55v-22.95h2.55v10.2h13.41v-10.2h2.55v22.95Z"/>
    <path class="cls-2" d="M813.34,99.42c0,3.9-2.13,6.07-5.41,6.07-1.31,0-2.36-.27-2.98-.73l.08-2.47c.58.5,1.58.85,2.63.85,2.16,0,3.13-1.47,3.13-4.1v-16.73h2.55v17.12Z"/>
    <path class="cls-2" d="M833.74,105.26l-2.82-7.07h-10.09l-2.82,7.07h-2.63l9.12-22.95h2.86l9.12,22.95h-2.74ZM826.75,87.52c-.35-.89-.58-1.58-.77-2.36h-.19c-.19.77-.43,1.47-.77,2.36l-3.44,8.54h8.58l-3.4-8.54Z"/>
    <path class="cls-2" d="M842.2,105.26h-2.55v-22.95h2.55v22.95Z"/>
    <path class="cls-2" d="M866,105.26h-2.32l-12.02-16.58c-.66-.89-1.24-1.78-1.58-2.43h-.15v19.01h-2.43v-22.95h2.51l11.82,16.31c.62.89,1.2,1.78,1.58,2.43h.12v-18.74h2.47v22.95Z"/>
    <path class="cls-2" d="M678.81,141.94c-7.26,0-12.33-4.83-12.33-11.71s4.83-11.71,11.63-11.71c3.17,0,5.33.58,7.23,1.89l-.85,2.4c-1.51-1.16-3.79-1.93-6.22-1.93-5.41,0-9.16,3.9-9.16,9.35s4.06,9.35,9.78,9.35c2.51,0,5.22-.7,6.96-1.97l.04,2.59c-1.78,1.16-4.29,1.74-7.07,1.74Z"/>
    <path class="cls-2" d="M711.07,130.23c0,6.72-4.87,11.71-11.71,11.71s-11.71-4.95-11.71-11.71,4.83-11.71,11.71-11.71,11.71,4.95,11.71,11.71ZM708.41,130.23c0-5.29-3.71-9.39-9.04-9.39s-9.04,4.02-9.04,9.39,3.67,9.39,9.04,9.39,9.04-4.02,9.04-9.39Z"/>
    <path class="cls-2" d="M730,141.71l-2.82-7.07h-10.09l-2.82,7.07h-2.63l9.12-22.95h2.86l9.12,22.95h-2.74ZM723.01,123.98c-.35-.89-.58-1.58-.77-2.36h-.19c-.19.77-.43,1.47-.77,2.36l-3.44,8.54h8.58l-3.4-8.54Z"/>
    <path class="cls-2" d="M745.65,141.94c-7.26,0-12.33-4.83-12.33-11.71s4.83-11.71,11.63-11.71c3.17,0,5.33.58,7.23,1.89l-.85,2.4c-1.51-1.16-3.79-1.93-6.22-1.93-5.41,0-9.16,3.9-9.16,9.35s4.06,9.35,9.78,9.35c2.51,0,5.22-.7,6.96-1.97l.04,2.59c-1.78,1.16-4.29,1.74-7.07,1.74Z"/>
    <path class="cls-2" d="M775.17,141.71h-2.55v-10.43h-13.41v10.43h-2.55v-22.95h2.55v10.2h13.41v-10.2h2.55v22.95Z"/>
    <path class="cls-2" d="M783.05,141.71h-2.55v-22.95h2.55v22.95Z"/>
    <path class="cls-2" d="M806.85,141.71h-2.32l-12.02-16.58c-.66-.89-1.24-1.78-1.58-2.43h-.15v19.01h-2.43v-22.95h2.51l11.82,16.31c.62.89,1.2,1.78,1.58,2.43h.12v-18.74h2.47v22.95Z"/>
    <path class="cls-2" d="M829.49,122.82c-1.51-1.16-3.94-1.93-6.68-1.93-5.49,0-9.43,3.67-9.43,9.35s4.06,9.35,9.78,9.35c2.24,0,4.06-.46,5.22-1v-7.81l2.55-.08v9.39c-1.93,1.2-4.6,1.85-7.84,1.85-7.26,0-12.33-4.83-12.33-11.71s4.91-11.71,11.94-11.71c3.4,0,5.76.58,7.65,1.89l-.85,2.4Z"/>
    <path class="cls-2" d="M678.81,178.4c-7.26,0-12.33-4.83-12.33-11.71s4.83-11.71,11.63-11.71c3.17,0,5.33.58,7.23,1.89l-.85,2.4c-1.51-1.16-3.79-1.93-6.22-1.93-5.41,0-9.16,3.9-9.16,9.35s4.06,9.35,9.78,9.35c2.51,0,5.22-.7,6.96-1.97l.04,2.59c-1.78,1.16-4.29,1.74-7.07,1.74Z"/>
    <path class="cls-2" d="M706.01,178.17l-2.82-7.07h-10.09l-2.82,7.07h-2.63l9.12-22.95h2.86l9.12,22.95h-2.74ZM699.02,160.43c-.35-.89-.58-1.58-.77-2.36h-.19c-.19.77-.43,1.47-.77,2.36l-3.44,8.54h8.58l-3.4-8.54Z"/>
    <path class="cls-2" d="M722.24,168.74l6.65,9.43h-3.05l-6.18-8.85h-5.18v8.85h-2.55v-22.95h6.95c5.26,0,8.73,2.47,8.73,7.11,0,3.55-2.36,5.72-5.37,6.41ZM718.68,157.38h-4.21v9.85h4.21c3.59,0,6.3-1.43,6.3-4.91s-2.7-4.95-6.3-4.95Z"/>
    <path class="cls-2" d="M746.27,157.49h-11.21v7.96h9.39v2.24h-9.39v8.19h11.63v2.28h-14.18v-22.95h13.95l-.19,2.28Z"/>
    <path class="cls-2" d="M764.19,157.49h-11.21v7.96h9.39v2.24h-9.39v8.19h11.63v2.28h-14.18v-22.95h13.95l-.19,2.28Z"/>
    <path class="cls-2" d="M778.68,168.74l6.65,9.43h-3.05l-6.18-8.85h-5.18v8.85h-2.55v-22.95h6.95c5.26,0,8.73,2.47,8.73,7.11,0,3.55-2.36,5.72-5.37,6.41ZM775.13,157.38h-4.21v9.85h4.21c3.59,0,6.3-1.43,6.3-4.91s-2.7-4.95-6.3-4.95Z"/>
    <path class="cls-2" d="M680.59,194.95c-1.31-.73-3.59-1.24-5.56-1.24-3.52,0-5.49,1.51-5.49,3.82,0,5.49,12.56,3.05,12.56,10.86,0,3.94-2.86,6.45-8.46,6.45-2.74,0-5.45-.66-6.95-1.51l.31-2.43c1.55.89,4.13,1.66,6.68,1.66,4.02,0,5.8-1.51,5.8-3.94,0-5.68-12.56-3.09-12.56-10.94,0-3.59,2.9-6.26,8.08-6.26,2.32,0,4.64.42,6.14,1.24l-.54,2.28Z"/>
    <path class="cls-2" d="M696.93,214.85c-7.26,0-12.33-4.83-12.33-11.71s4.83-11.71,11.63-11.71c3.17,0,5.33.58,7.23,1.89l-.85,2.4c-1.51-1.16-3.79-1.93-6.22-1.93-5.41,0-9.16,3.9-9.16,9.35s4.06,9.35,9.78,9.35c2.51,0,5.22-.7,6.96-1.97l.04,2.59c-1.78,1.16-4.29,1.74-7.07,1.74Z"/>
    <path class="cls-2" d="M726.45,214.62h-2.55v-10.43h-13.41v10.43h-2.55v-22.95h2.55v10.2h13.41v-10.2h2.55v22.95Z"/>
    <path class="cls-2" d="M753.76,203.15c0,6.72-4.87,11.71-11.71,11.71s-11.71-4.95-11.71-11.71,4.83-11.71,11.71-11.71,11.71,4.95,11.71,11.71ZM751.1,203.15c0-5.29-3.71-9.39-9.04-9.39s-9.04,4.02-9.04,9.39,3.67,9.39,9.04,9.39,9.04-4.02,9.04-9.39Z"/>
    <path class="cls-2" d="M779.65,203.15c0,6.72-4.87,11.71-11.71,11.71s-11.71-4.95-11.71-11.71,4.83-11.71,11.71-11.71,11.71,4.95,11.71,11.71ZM776.98,203.15c0-5.29-3.71-9.39-9.04-9.39s-9.04,4.02-9.04,9.39,3.67,9.39,9.04,9.39,9.04-4.02,9.04-9.39Z"/>
    <path class="cls-2" d="M783.55,191.67h2.55v20.63h10.59l-.19,2.32h-12.94v-22.95Z"/>
  </g>
</svg>